<svg version="1.1" id="Layer_1" xmlns="http://www.w3.org/2000/svg" xmlns:xlink="http://www.w3.org/1999/xlink" x="0px" y="0px"
	 width="100%" viewBox="0 0 500 500" enable-background="new 0 0 500 500" xml:space="preserve">
<path fill="#FBFAF9" opacity="1.000000" stroke="none" 
	d="
M243.000000,501.000000 
	C162.000015,501.000000 81.500038,501.000000 1.000043,501.000000 
	C1.000029,334.333405 1.000029,167.666779 1.000014,1.000133 
	C167.666565,1.000088 334.333130,1.000088 500.999756,1.000044 
	C500.999847,167.666519 500.999847,334.333038 500.999939,500.999786 
	C415.166656,501.000000 329.333344,501.000000 243.000000,501.000000 
M365.158600,273.395752 
	C365.256866,274.571869 365.355133,275.747955 365.355438,275.751495 
	C365.390198,275.689941 366.156921,274.332581 367.316406,272.378723 
	C369.090271,267.443024 370.864105,262.507355 372.187225,258.825745 
	C370.625702,257.443085 369.708160,257.003784 369.401581,256.298828 
	C367.351044,251.583359 365.386505,246.828796 363.494080,242.047302 
	C362.898712,240.543060 362.066986,238.798187 362.375763,237.389755 
	C362.576111,236.475754 364.645447,235.971497 366.380035,235.003021 
	C359.813324,235.003021 353.952148,235.003021 348.487274,235.003021 
	C349.986267,237.318588 351.743774,239.450089 352.866058,241.875519 
	C356.349518,249.403687 359.652649,257.017639 362.894592,264.653961 
	C364.037567,267.346222 364.801880,270.199219 365.158600,273.395752 
M265.597656,239.614059 
	C267.899902,238.730179 270.228729,237.194046 272.491241,237.286118 
	C273.385864,237.322510 274.706177,240.945541 274.835602,242.998352 
	C275.169708,248.297714 275.175140,253.645355 274.865875,258.947693 
	C274.670319,262.300903 273.674103,265.607391 273.081024,268.704926 
	C277.465729,268.704926 282.985992,268.704926 287.222321,268.704926 
	C286.359924,266.114471 284.930145,263.567963 284.751343,260.936462 
	C284.312561,254.480301 284.708435,247.967758 284.277740,241.510635 
	C283.908936,235.981857 281.395660,233.653839 275.905334,233.842590 
	C272.914673,233.945435 269.984558,235.417831 266.993561,236.131622 
	C266.036987,236.359894 264.972473,236.136032 264.112152,235.224533 
	C259.636566,234.980194 255.160980,234.735870 249.390030,234.420807 
	C256.482910,238.955093 256.566620,264.097931 250.805649,268.614868 
	C256.365082,268.614868 261.924500,268.614868 267.186829,268.614868 
	C266.126923,266.890442 264.363861,265.342926 264.354889,263.785278 
	C264.309143,255.854568 264.717255,247.921249 265.597656,239.614059 
M165.597656,239.614105 
	C167.899918,238.730225 170.228683,237.194153 172.491287,237.286133 
	C173.385818,237.322479 174.706192,240.945572 174.835617,242.998383 
	C175.169708,248.297760 175.175110,253.645401 174.865860,258.947754 
	C174.670303,262.300964 173.674072,265.607452 173.080994,268.704895 
	C177.464798,268.704895 182.985947,268.704895 187.222153,268.704895 
	C186.359802,266.114410 184.930145,263.567871 184.751328,260.936340 
	C184.312592,254.480164 184.708389,247.967590 184.277649,241.510452 
	C183.908829,235.981689 181.395538,233.653748 175.905106,233.842575 
	C172.914429,233.945450 169.984390,235.417953 166.993378,236.131775 
	C166.036880,236.360046 164.972397,236.135910 164.112152,235.224304 
	C159.636520,234.980103 155.160889,234.735886 149.389816,234.420990 
	C156.482895,238.954910 156.566696,264.097534 150.805649,268.614807 
	C156.365082,268.614807 161.924500,268.614807 167.186737,268.614807 
	C166.134323,266.902557 164.364807,265.349152 164.355438,263.785217 
	C164.307922,255.854599 164.717239,247.921234 165.597656,239.614105 
M215.136230,216.986633 
	C204.819748,217.059967 202.382935,219.795959 199.865631,234.145386 
	C198.620346,234.538391 197.398911,234.923859 195.315582,235.581329 
	C197.576721,235.947266 198.823105,236.148972 200.219254,236.374924 
	C200.219254,245.454483 200.337341,254.266464 200.115433,263.069855 
	C200.073181,264.745361 198.686295,266.387024 197.733032,268.448120 
	C203.542130,268.448120 209.651749,268.448120 214.960571,268.448120 
	C213.447327,266.866547 210.416153,265.184570 210.313812,263.340057 
	C209.810654,254.272598 210.085312,245.162003 210.085312,236.125015 
	C212.639862,235.990891 214.668945,235.884369 216.698029,235.777832 
	C216.707901,235.496246 216.717758,235.214661 216.727615,234.933075 
	C214.572937,234.738190 212.418259,234.543289 210.121719,234.335571 
	C210.121719,230.625626 209.575806,227.021622 210.316956,223.705231 
	C210.797226,221.556229 213.157639,219.827408 215.481796,218.657669 
	C215.045837,219.498688 214.208527,220.360718 214.251297,221.176636 
	C214.366745,223.379959 214.149338,226.289490 215.419800,227.527847 
	C216.455261,228.537140 220.426147,228.337112 221.330246,227.230804 
	C222.507050,225.790802 222.813675,222.419632 221.884537,220.807724 
	C220.872223,219.051498 218.016785,218.357697 215.136230,216.986633 
M475.976929,311.021698 
	C475.976929,265.095825 475.976929,219.169922 475.976929,173.274597 
	C325.703552,173.274597 175.981674,173.274597 26.006142,173.274597 
	C26.006142,178.357071 26.001007,183.164642 26.006947,187.972198 
	C26.057995,229.296448 26.111046,270.620697 26.399721,312.782501 
	C43.071564,312.782501 59.743404,312.782501 76.415245,312.782501 
	C76.412674,312.503662 76.410103,312.224854 76.407524,311.946014 
	C60.016029,311.946014 43.624531,311.946014 27.079624,311.026245 
	C27.079624,265.432495 27.079624,219.838730 27.079624,174.278107 
	C176.623566,174.278107 325.689514,174.278107 475.010376,174.278107 
	C475.010376,176.356979 475.010376,178.164322 475.010376,179.971664 
	C475.010376,220.302429 475.016571,260.633179 474.999878,300.963959 
	C474.998352,304.624969 474.849457,308.285919 473.874176,311.781097 
	C457.705841,311.781097 441.537537,311.781097 425.369202,311.781097 
	C425.961029,312.751465 426.580902,312.978363 427.201111,312.979187 
	C442.632660,312.999786 458.064331,313.011871 473.495667,312.952515 
	C474.274689,312.949524 475.051208,312.293274 475.976929,311.021698 
M138.842834,223.668289 
	C139.645279,223.336288 140.447723,223.004288 142.074326,222.331299 
	C134.494339,222.331299 127.934494,222.331299 121.374657,222.331299 
	C125.589676,223.210999 126.067116,226.037033 126.023537,229.541428 
	C125.903465,239.196625 126.006104,248.854385 125.971222,258.510956 
	C125.956543,262.574280 127.290443,267.284821 121.453690,268.753845 
	C127.999298,268.753845 134.544907,268.753845 141.468979,268.753845 
	C136.763000,265.997559 136.735062,265.997620 136.723648,260.527405 
	C136.702469,250.371246 136.643250,240.214035 136.780197,230.059708 
	C136.807449,228.040131 137.643402,226.031494 138.842834,223.668289 
M335.321716,233.579163 
	C335.321716,230.481888 335.321716,227.384613 335.321716,224.126526 
	C331.933746,224.847336 329.055359,225.459732 325.992950,226.111267 
	C326.181091,230.808182 325.001526,235.335892 325.632660,240.210342 
	C326.501617,246.922211 325.783905,253.829056 325.927521,260.648529 
	C326.048370,266.386139 328.307312,269.151520 333.041809,269.871185 
	C337.997162,270.624420 341.412537,268.466248 343.174683,263.954437 
	C341.305817,264.549835 339.074341,265.260742 336.842865,265.971649 
	C336.335815,263.653076 335.442963,261.342987 335.391541,259.014343 
	C335.211487,250.864761 335.321686,242.708725 335.321716,233.579163 
M238.153992,260.110504 
	C238.153992,251.514343 238.153992,242.918182 238.153992,234.144379 
	C233.277832,234.456482 228.915878,234.735687 224.030289,235.048386 
	C230.365326,238.783493 230.611847,263.139862 225.128647,268.594635 
	C230.569565,268.594635 236.209427,268.594635 240.683273,268.594635 
	C239.824005,266.022247 238.989075,263.522736 238.153992,260.110504 
M300.241821,262.177551 
	C299.247253,264.420593 298.252686,266.663666 297.367554,268.659912 
	C302.211731,268.659912 307.974030,268.659912 312.385315,268.659912 
	C311.576019,265.980804 310.199310,263.404633 310.116089,260.787354 
	C309.833588,251.902298 310.008209,243.002701 310.008209,234.105484 
	C304.979919,234.432434 300.612091,234.716431 297.469818,234.920746 
	C298.403748,237.413498 299.961884,239.824142 300.113403,242.320206 
	C300.495087,248.607513 300.242493,254.933334 300.241821,262.177551 
M384.743591,317.276733 
	C384.875732,313.963989 385.918671,310.274170 384.767181,307.492889 
	C384.164612,306.037476 379.708099,306.177673 376.751862,305.545868 
	C376.751862,310.322754 376.751862,314.034058 376.751862,318.140137 
	C379.400665,317.985352 381.686401,317.851746 384.743591,317.276733 
M232.611069,217.273514 
	C229.643723,217.735016 226.694733,218.772522 227.152481,222.285629 
	C227.386566,224.082245 229.206421,226.347244 230.899170,227.137329 
	C234.350952,228.748444 238.319061,226.844803 238.896622,223.767120 
	C239.698395,219.494522 237.159637,217.797867 232.611069,217.273514 
M307.543457,227.116364 
	C310.637421,225.731552 311.809998,223.354462 310.267975,220.336197 
	C308.539673,216.953384 305.151764,216.372253 302.244965,217.981949 
	C300.590363,218.898193 298.849426,221.847870 299.107239,223.592194 
	C299.726562,227.782806 303.291443,227.965195 307.543457,227.116364 
M116.478775,306.054871 
	C115.266571,309.080444 117.396332,315.533539 120.710976,318.214355 
	C121.748489,315.877747 122.748619,313.625336 124.032806,310.733154 
	C125.341965,313.781830 126.312767,316.042542 127.283569,318.303284 
	C127.825859,318.271515 128.368149,318.239746 128.910446,318.208008 
	C130.029526,314.371399 131.148621,310.534821 132.267715,306.698242 
	C131.787567,306.550018 131.307434,306.401825 130.827301,306.253601 
	C129.910385,308.569214 128.993469,310.884796 127.816803,313.856354 
	C126.508110,310.603729 125.529190,308.170746 124.550278,305.737762 
	C124.121269,305.762848 123.692261,305.787933 123.263252,305.813019 
	C122.362076,308.277039 121.460892,310.741028 120.182884,314.235352 
	C118.892441,310.892792 118.021179,308.636017 116.478775,306.054871 
M174.885101,308.245972 
	C172.021210,307.240540 169.157303,306.235077 165.882019,305.085205 
	C165.882019,310.263458 165.882019,314.071228 165.882019,317.878998 
	C169.057465,310.698853 171.705994,316.733124 174.718597,318.464691 
	C174.365173,316.421051 173.852448,314.972321 173.940964,313.561279 
	C174.038376,312.007965 174.688477,310.489349 174.885101,308.245972 
M350.775421,277.818054 
	C353.774170,281.471283 360.142395,282.930786 361.839142,280.242004 
	C360.889160,280.072052 359.973572,279.908234 359.879425,279.891388 
	C359.879425,277.542511 360.650482,274.884552 359.652710,273.518372 
	C358.738007,272.265930 355.556458,271.543030 354.031250,272.174622 
	C352.460358,272.825134 351.683960,275.394135 350.775421,277.818054 
M153.455566,315.141174 
	C152.050949,311.939301 150.646332,308.737457 149.241714,305.535583 
	C148.624725,305.565338 148.007736,305.595062 147.390732,305.624786 
	C145.629166,309.585907 143.867615,313.546997 142.106049,317.508087 
	C146.172974,315.169739 149.514114,313.827881 152.848740,317.848297 
	C153.171234,317.183533 153.493729,316.518768 153.455566,315.141174 
M208.336319,306.304993 
	C208.336319,310.197906 208.336319,314.090790 208.336319,317.983704 
	C208.765167,317.995728 209.194016,318.007751 209.622864,318.019806 
	C209.979980,316.511658 210.337097,315.003540 210.736908,313.315186 
	C212.349380,313.315186 213.960114,313.315186 215.545670,313.315186 
	C216.084259,315.010864 216.571426,316.544586 217.058578,318.078308 
	C217.383423,318.007812 217.708252,317.937317 218.033096,317.866821 
	C218.033096,313.944122 218.033096,310.021423 218.033096,306.098724 
	C217.662079,306.058258 217.291046,306.017761 216.920029,305.977295 
	C216.479889,307.581360 216.039764,309.185394 215.535721,311.022400 
	C213.811264,310.940796 212.222610,310.865631 210.936295,310.804779 
	C210.240479,308.952118 209.698563,307.509155 208.336319,306.304993 
M335.500824,311.003174 
	C334.308960,309.426208 333.117126,307.849274 331.639648,305.894440 
	C331.639648,310.014343 331.639648,313.945221 331.639648,317.876099 
	C332.005035,317.901978 332.370422,317.927826 332.735779,317.953674 
	C333.042480,316.435364 333.349152,314.917053 333.670013,313.328461 
	C335.416534,313.328461 337.037170,313.328461 338.607269,313.328461 
	C339.099396,315.050018 339.532410,316.564789 339.965424,318.079559 
	C340.307404,317.993408 340.649353,317.907257 340.991333,317.821106 
	C340.991333,313.918884 340.991333,310.016663 340.991333,306.249634 
	C339.260071,308.045135 337.826294,309.532074 335.500824,311.003174 
M242.537537,313.890015 
	C242.519638,312.601929 242.812180,311.210815 242.425415,310.045105 
	C241.282455,306.599976 237.259827,304.899994 233.902267,306.430389 
	C230.601028,307.935150 229.095184,310.623566 230.451447,314.108337 
	C231.880569,317.780365 235.026840,318.830109 238.583542,317.699524 
	C239.982819,317.254730 241.017410,315.662750 242.537537,313.890015 
M191.273956,313.051025 
	C192.563431,312.898346 193.852890,312.745667 195.142365,312.592987 
	C195.124512,312.221741 195.106659,311.850494 195.088821,311.479279 
	C193.233017,311.096985 191.377228,310.714691 189.521423,310.332397 
	C189.492416,309.843719 189.463394,309.355011 189.434372,308.866333 
	C190.474854,308.573700 191.507370,308.247589 192.558029,307.997833 
	C193.642944,307.739960 194.745514,307.556335 195.840347,307.340210 
	C195.788803,306.991089 195.737244,306.641968 195.685699,306.292847 
	C193.006149,306.292847 190.326599,306.292847 187.448608,306.292847 
	C187.448608,310.223816 187.448608,313.946167 187.448608,318.123535 
	C190.479935,317.969208 193.162109,317.832642 195.844284,317.696075 
	C195.834320,317.243164 195.824356,316.790222 195.814392,316.337311 
	C194.407486,316.227661 192.877014,316.411102 191.643234,315.890869 
	C190.976654,315.609802 190.817108,314.126282 191.273956,313.051025 
M279.771332,315.946350 
	C278.511627,315.686768 277.251923,315.427185 275.992218,315.167633 
	C278.257019,318.622589 281.722290,319.361633 283.799774,316.661346 
	C288.043182,311.145813 279.450745,312.174744 278.829071,308.392029 
	C280.718445,308.392029 282.356384,308.392029 283.994324,308.392029 
	C284.095673,307.892487 284.197021,307.392944 284.298370,306.893402 
	C282.502502,306.627441 280.622375,305.925598 278.940826,306.250793 
	C277.843353,306.462982 276.130188,308.358978 276.300507,309.158081 
	C276.579834,310.468994 277.976776,311.808472 279.240540,312.587158 
	C281.839386,314.188507 281.931366,314.039246 279.771332,315.946350 
M256.729095,314.478821 
	C256.319855,311.663361 255.910629,308.847931 255.501389,306.032471 
	C254.991058,306.126709 254.480728,306.220947 253.970383,306.315186 
	C254.682709,310.064514 251.888748,314.717072 256.587891,317.306641 
	C258.211121,318.201233 261.991699,317.666992 263.188141,316.341919 
	C265.827057,313.419281 265.003143,309.572296 263.429199,306.045685 
	C262.480774,307.996796 262.286652,309.997192 262.217194,312.001953 
	C262.094635,315.539856 260.762451,317.059387 256.729095,314.478821 
M301.427643,310.975220 
	C300.641998,310.417542 299.856354,309.859833 299.070709,309.302155 
	C299.813019,308.865997 300.507751,308.230591 301.308563,308.039276 
	C302.584808,307.734375 303.931702,307.725128 305.248718,307.590820 
	C305.232025,307.202362 305.215332,306.813904 305.198669,306.425446 
	C302.592010,306.425446 299.985321,306.425446 297.096802,306.425446 
	C297.096802,310.127594 297.096802,313.849823 297.096802,318.109039 
	C300.062286,317.976440 302.751495,317.856232 305.440674,317.735992 
	C305.436096,317.399170 305.431519,317.062317 305.426941,316.725464 
	C303.207886,316.150024 300.988800,315.574554 298.769714,314.999115 
	C298.889465,314.487183 299.009216,313.975250 299.128937,313.463348 
	C300.991272,313.109283 302.853638,312.755249 304.715973,312.401184 
	C304.667358,312.070618 304.618744,311.740051 304.570129,311.409515 
	C303.797638,311.266815 303.025177,311.124146 301.427643,310.975220 
M360.285889,315.834473 
	C356.783356,316.557739 355.955170,314.643219 355.951385,311.640686 
	C355.949036,309.778198 355.586212,307.916199 355.385193,306.053986 
	C354.867706,306.140686 354.350220,306.227386 353.832733,306.314087 
	C354.667511,310.042633 351.683899,314.718842 356.422913,317.305969 
	C358.020355,318.178070 362.377350,317.391663 362.858215,316.256012 
	C364.140259,313.228180 364.001465,309.598724 364.427490,306.208405 
	C363.853394,306.184845 363.279297,306.161255 362.705170,306.137695 
	C362.142181,309.222931 361.579163,312.308136 360.285889,315.834473 
M379.876007,234.754257 
	C377.119324,234.754257 374.362671,234.754257 372.569397,234.754257 
	C374.175873,237.786057 375.799774,240.850830 377.126373,243.354477 
	C378.533234,241.202255 380.553894,238.111023 382.766693,234.725861 
	C381.920868,234.725861 381.294373,234.725861 379.876007,234.754257 
z"/>
<path fill="#080808" opacity="1.000000" stroke="none" 
	d="
M26.163500,311.944946 
	C26.111046,270.620697 26.057995,229.296448 26.006947,187.972198 
	C26.001007,183.164642 26.006142,178.357071 26.006142,173.274597 
	C175.981674,173.274597 325.703552,173.274597 475.976929,173.274597 
	C475.976929,219.169922 475.976929,265.095825 475.637756,311.445435 
	C475.122040,311.895050 474.945526,311.920959 474.768982,311.946899 
	C474.849457,308.285919 474.998352,304.624969 474.999878,300.963959 
	C475.016571,260.633179 475.010376,220.302429 475.010376,179.971664 
	C475.010376,178.164322 475.010376,176.356979 475.010376,174.278107 
	C325.689514,174.278107 176.623566,174.278107 27.079624,174.278107 
	C27.079624,219.838730 27.079624,265.432495 26.888977,311.453247 
	C26.520052,311.901825 26.341776,311.923370 26.163500,311.944946 
z"/>
<path fill="#0F0F0F" opacity="1.000000" stroke="none" 
	d="
M138.474640,223.843048 
	C137.643402,226.031494 136.807449,228.040131 136.780197,230.059708 
	C136.643250,240.214035 136.702469,250.371246 136.723648,260.527405 
	C136.735062,265.997620 136.763000,265.997559 141.468979,268.753845 
	C134.544907,268.753845 127.999298,268.753845 121.453690,268.753845 
	C127.290443,267.284821 125.956543,262.574280 125.971222,258.510956 
	C126.006104,248.854385 125.903465,239.196625 126.023537,229.541428 
	C126.067116,226.037033 125.589676,223.210999 121.374657,222.331299 
	C127.934494,222.331299 134.494339,222.331299 142.074326,222.331299 
	C140.447723,223.004288 139.645279,223.336288 138.474640,223.843048 
z"/>
<path fill="#0F0F0F" opacity="1.000000" stroke="none" 
	d="
M214.675598,217.910294 
	C213.157639,219.827408 210.797226,221.556229 210.316956,223.705231 
	C209.575806,227.021622 210.121719,230.625626 210.121719,234.335571 
	C212.418259,234.543289 214.572937,234.738190 216.727615,234.933075 
	C216.717758,235.214661 216.707901,235.496246 216.698029,235.777832 
	C214.668945,235.884369 212.639862,235.990891 210.085312,236.125015 
	C210.085312,245.162003 209.810654,254.272598 210.313812,263.340057 
	C210.416153,265.184570 213.447327,266.866547 214.960571,268.448120 
	C209.651749,268.448120 203.542130,268.448120 197.733032,268.448120 
	C198.686295,266.387024 200.073181,264.745361 200.115433,263.069855 
	C200.337341,254.266464 200.219254,245.454483 200.219254,236.374924 
	C198.823105,236.148972 197.576721,235.947266 195.315582,235.581329 
	C197.398911,234.923859 198.620346,234.538391 199.865631,234.145386 
	C202.382935,219.795959 204.819748,217.059967 215.477173,217.235199 
	C215.437271,217.625931 215.056427,217.768112 214.675598,217.910294 
z"/>
<path fill="#0B0B0B" opacity="1.000000" stroke="none" 
	d="
M335.321686,234.067154 
	C335.321686,242.708725 335.211487,250.864761 335.391541,259.014343 
	C335.442963,261.342987 336.335815,263.653076 336.842865,265.971649 
	C339.074341,265.260742 341.305817,264.549835 343.174683,263.954437 
	C341.412537,268.466248 337.997162,270.624420 333.041809,269.871185 
	C328.307312,269.151520 326.048370,266.386139 325.927521,260.648529 
	C325.783905,253.829056 326.501617,246.922211 325.632660,240.210342 
	C325.001526,235.335892 326.181091,230.808182 325.992950,226.111267 
	C329.055359,225.459732 331.933746,224.847336 335.321716,224.126526 
	C335.321716,227.384613 335.321716,230.481888 335.321686,234.067154 
z"/>
<path fill="#0B0B0B" opacity="1.000000" stroke="none" 
	d="
M164.966476,239.988831 
	C164.717239,247.921234 164.307922,255.854599 164.355438,263.785217 
	C164.364807,265.349152 166.134323,266.902557 167.186737,268.614807 
	C161.924500,268.614807 156.365082,268.614807 150.801422,268.616547 
	C156.566696,264.097534 156.482895,238.954910 149.389816,234.420990 
	C155.160889,234.735886 159.636520,234.980103 164.014359,236.027191 
	C164.266541,237.882996 164.616516,238.935913 164.966476,239.988831 
z"/>
<path fill="#0B0B0B" opacity="1.000000" stroke="none" 
	d="
M264.966492,239.988831 
	C264.717255,247.921249 264.309143,255.854568 264.354889,263.785278 
	C264.363861,265.342926 266.126923,266.890442 267.186829,268.614868 
	C261.924500,268.614868 256.365082,268.614868 250.801422,268.616516 
	C256.566620,264.097931 256.482910,238.955093 249.390030,234.420807 
	C255.160980,234.735870 259.636566,234.980194 264.014374,236.027405 
	C264.266571,237.883133 264.616516,238.935974 264.966492,239.988831 
z"/>
<path fill="#121212" opacity="1.000000" stroke="none" 
	d="
M165.282074,239.801468 
	C164.616516,238.935913 164.266541,237.882996 163.936951,236.474426 
	C164.972397,236.135910 166.036880,236.360046 166.993378,236.131775 
	C169.984390,235.417953 172.914429,233.945450 175.905106,233.842575 
	C181.395538,233.653748 183.908829,235.981689 184.277649,241.510452 
	C184.708389,247.967590 184.312592,254.480164 184.751328,260.936340 
	C184.930145,263.567871 186.359802,266.114410 187.222153,268.704895 
	C182.985947,268.704895 177.464798,268.704895 173.080994,268.704895 
	C173.674072,265.607452 174.670303,262.300964 174.865860,258.947754 
	C175.175110,253.645401 175.169708,248.297760 174.835617,242.998383 
	C174.706192,240.945572 173.385818,237.322479 172.491287,237.286133 
	C170.228683,237.194153 167.899918,238.730225 165.282074,239.801468 
z"/>
<path fill="#121212" opacity="1.000000" stroke="none" 
	d="
M265.282074,239.801453 
	C264.616516,238.935974 264.266571,237.883133 263.936981,236.474655 
	C264.972473,236.136032 266.036987,236.359894 266.993561,236.131622 
	C269.984558,235.417831 272.914673,233.945435 275.905334,233.842590 
	C281.395660,233.653839 283.908936,235.981857 284.277740,241.510635 
	C284.708435,247.967758 284.312561,254.480301 284.751343,260.936462 
	C284.930145,263.567963 286.359924,266.114471 287.222321,268.704926 
	C282.985992,268.704926 277.465729,268.704926 273.081024,268.704926 
	C273.674103,265.607391 274.670319,262.300903 274.865875,258.947693 
	C275.175140,253.645355 275.169708,248.297714 274.835602,242.998352 
	C274.706177,240.945541 273.385864,237.322510 272.491241,237.286118 
	C270.228729,237.194046 267.899902,238.730179 265.282074,239.801453 
z"/>
<path fill="#0B0B0B" opacity="1.000000" stroke="none" 
	d="
M365.739105,272.978821 
	C364.801880,270.199219 364.037567,267.346222 362.894592,264.653961 
	C359.652649,257.017639 356.349518,249.403687 352.866058,241.875519 
	C351.743774,239.450089 349.986267,237.318588 348.487274,235.003021 
	C353.952148,235.003021 359.813324,235.003021 366.380035,235.003021 
	C364.645447,235.971497 362.576111,236.475754 362.375763,237.389755 
	C362.066986,238.798187 362.898712,240.543060 363.494080,242.047302 
	C365.386505,246.828796 367.351044,251.583359 369.401581,256.298828 
	C369.708160,257.003784 370.625702,257.443085 372.187225,258.825745 
	C370.864105,262.507355 369.090271,267.443024 366.922546,272.677582 
	C366.265442,272.958435 366.002258,272.959229 365.739105,272.978821 
z"/>
<path fill="#0B0B0B" opacity="1.000000" stroke="none" 
	d="
M238.154053,260.566864 
	C238.989075,263.522736 239.824005,266.022247 240.683273,268.594635 
	C236.209427,268.594635 230.569565,268.594635 225.128647,268.594635 
	C230.611847,263.139862 230.365326,238.783493 224.030289,235.048386 
	C228.915878,234.735687 233.277832,234.456482 238.153992,234.144379 
	C238.153992,242.918182 238.153992,251.514343 238.154053,260.566864 
z"/>
<path fill="#0F0F0F" opacity="1.000000" stroke="none" 
	d="
M300.242981,261.710632 
	C300.242493,254.933334 300.495087,248.607513 300.113403,242.320206 
	C299.961884,239.824142 298.403748,237.413498 297.469818,234.920746 
	C300.612091,234.716431 304.979919,234.432434 310.008209,234.105484 
	C310.008209,243.002701 309.833588,251.902298 310.116089,260.787354 
	C310.199310,263.404633 311.576019,265.980804 312.385315,268.659912 
	C307.974030,268.659912 302.211731,268.659912 297.367554,268.659912 
	C298.252686,266.663666 299.247253,264.420593 300.242981,261.710632 
z"/>
<path fill="#FFA620" opacity="1.000000" stroke="none" 
	d="
M384.357880,317.497437 
	C381.686401,317.851746 379.400665,317.985352 376.751862,318.140137 
	C376.751862,314.034058 376.751862,310.322754 376.751862,305.545868 
	C379.708099,306.177673 384.164612,306.037476 384.767181,307.492889 
	C385.918671,310.274170 384.875732,313.963989 384.357880,317.497437 
z"/>
<path fill="#121212" opacity="1.000000" stroke="none" 
	d="
M232.998459,217.273346 
	C237.159637,217.797867 239.698395,219.494522 238.896622,223.767120 
	C238.319061,226.844803 234.350952,228.748444 230.899170,227.137329 
	C229.206421,226.347244 227.386566,224.082245 227.152481,222.285629 
	C226.694733,218.772522 229.643723,217.735016 232.998459,217.273346 
z"/>
<path fill="#121212" opacity="1.000000" stroke="none" 
	d="
M307.175659,227.218231 
	C303.291443,227.965195 299.726562,227.782806 299.107239,223.592194 
	C298.849426,221.847870 300.590363,218.898193 302.244965,217.981949 
	C305.151764,216.372253 308.539673,216.953384 310.267975,220.336197 
	C311.809998,223.354462 310.637421,225.731552 307.175659,227.218231 
z"/>
<path fill="#FFA620" opacity="1.000000" stroke="none" 
	d="
M116.814346,306.217041 
	C118.021179,308.636017 118.892441,310.892792 120.182884,314.235352 
	C121.460892,310.741028 122.362076,308.277039 123.263252,305.813019 
	C123.692261,305.787933 124.121269,305.762848 124.550278,305.737762 
	C125.529190,308.170746 126.508110,310.603729 127.816803,313.856354 
	C128.993469,310.884796 129.910385,308.569214 130.827301,306.253601 
	C131.307434,306.401825 131.787567,306.550018 132.267715,306.698242 
	C131.148621,310.534821 130.029526,314.371399 128.910446,318.208008 
	C128.368149,318.239746 127.825859,318.271515 127.283569,318.303284 
	C126.312767,316.042542 125.341965,313.781830 124.032806,310.733154 
	C122.748619,313.625336 121.748489,315.877747 120.710976,318.214355 
	C117.396332,315.533539 115.266571,309.080444 116.814346,306.217041 
z"/>
<path fill="#FFA620" opacity="1.000000" stroke="none" 
	d="
M174.991455,308.600769 
	C174.688477,310.489349 174.038376,312.007965 173.940964,313.561279 
	C173.852448,314.972321 174.365173,316.421051 174.718597,318.464691 
	C171.705994,316.733124 169.057465,310.698853 165.882019,317.878998 
	C165.882019,314.071228 165.882019,310.263458 165.882019,305.085205 
	C169.157303,306.235077 172.021210,307.240540 174.991455,308.600769 
z"/>
<path fill="#121212" opacity="1.000000" stroke="none" 
	d="
M350.667664,277.470886 
	C351.683960,275.394135 352.460358,272.825134 354.031250,272.174622 
	C355.556458,271.543030 358.738007,272.265930 359.652710,273.518372 
	C360.650482,274.884552 359.879425,277.542511 359.879425,279.891388 
	C359.973572,279.908234 360.889160,280.072052 361.839142,280.242004 
	C360.142395,282.930786 353.774170,281.471283 350.667664,277.470886 
z"/>
<path fill="#121212" opacity="1.000000" stroke="none" 
	d="
M215.078705,218.283981 
	C215.056427,217.768112 215.437271,217.625931 215.891479,217.342255 
	C218.016785,218.357697 220.872223,219.051498 221.884537,220.807724 
	C222.813675,222.419632 222.507050,225.790802 221.330246,227.230804 
	C220.426147,228.337112 216.455261,228.537140 215.419800,227.527847 
	C214.149338,226.289490 214.366745,223.379959 214.251297,221.176636 
	C214.208527,220.360718 215.045837,219.498688 215.078705,218.283981 
z"/>
<path fill="#FEAC2E" opacity="1.000000" stroke="none" 
	d="
M153.635895,315.497620 
	C153.493729,316.518768 153.171234,317.183533 152.848755,317.848297 
	C149.514114,313.827881 146.172974,315.169739 142.106049,317.508087 
	C143.867615,313.546997 145.629166,309.585907 147.390732,305.624786 
	C148.007736,305.595062 148.624725,305.565338 149.241714,305.535583 
	C150.646332,308.737457 152.050949,311.939301 153.635895,315.497620 
z"/>
<path fill="#FEAC2E" opacity="1.000000" stroke="none" 
	d="
M208.746475,306.185608 
	C209.698563,307.509155 210.240479,308.952118 210.936295,310.804779 
	C212.222610,310.865631 213.811264,310.940796 215.535721,311.022400 
	C216.039764,309.185394 216.479889,307.581360 216.920029,305.977295 
	C217.291046,306.017761 217.662079,306.058258 218.033096,306.098724 
	C218.033096,310.021423 218.033096,313.944122 218.033096,317.866821 
	C217.708252,317.937317 217.383423,318.007812 217.058578,318.078308 
	C216.571426,316.544586 216.084259,315.010864 215.545670,313.315186 
	C213.960114,313.315186 212.349380,313.315186 210.736908,313.315186 
	C210.337097,315.003540 209.979980,316.511658 209.622864,318.019806 
	C209.194016,318.007751 208.765167,317.995728 208.336319,317.983704 
	C208.336319,314.090790 208.336319,310.197906 208.746475,306.185608 
z"/>
<path fill="#FEAC2E" opacity="1.000000" stroke="none" 
	d="
M335.946655,311.011108 
	C337.826294,309.532074 339.260071,308.045135 340.991333,306.249634 
	C340.991333,310.016663 340.991333,313.918884 340.991333,317.821106 
	C340.649353,317.907257 340.307404,317.993408 339.965424,318.079559 
	C339.532410,316.564789 339.099396,315.050018 338.607269,313.328461 
	C337.037170,313.328461 335.416534,313.328461 333.670013,313.328461 
	C333.349152,314.917053 333.042480,316.435364 332.735779,317.953674 
	C332.370422,317.927826 332.005035,317.901978 331.639648,317.876099 
	C331.639648,313.945221 331.639648,310.014343 331.639648,305.894440 
	C333.117126,307.849274 334.308960,309.426208 335.946655,311.011108 
z"/>
<path fill="#FFA620" opacity="1.000000" stroke="none" 
	d="
M242.377808,314.241608 
	C241.017410,315.662750 239.982819,317.254730 238.583542,317.699524 
	C235.026840,318.830109 231.880569,317.780365 230.451447,314.108337 
	C229.095184,310.623566 230.601028,307.935150 233.902267,306.430389 
	C237.259827,304.899994 241.282455,306.599976 242.425415,310.045105 
	C242.812180,311.210815 242.519638,312.601929 242.377808,314.241608 
M238.647598,308.546326 
	C235.958511,307.392761 233.504501,307.838898 232.646790,310.703918 
	C232.254776,312.013397 233.102127,314.501251 234.198929,315.225159 
	C235.327301,315.969940 238.623764,315.699127 238.898727,315.026001 
	C239.614365,313.274078 239.193832,311.058075 238.647598,308.546326 
z"/>
<path fill="#FFA620" opacity="1.000000" stroke="none" 
	d="
M190.851379,313.118103 
	C190.817108,314.126282 190.976654,315.609802 191.643234,315.890869 
	C192.877014,316.411102 194.407486,316.227661 195.814392,316.337311 
	C195.824356,316.790222 195.834320,317.243164 195.844284,317.696075 
	C193.162109,317.832642 190.479935,317.969208 187.448608,318.123535 
	C187.448608,313.946167 187.448608,310.223816 187.448608,306.292847 
	C190.326599,306.292847 193.006149,306.292847 195.685699,306.292847 
	C195.737244,306.641968 195.788803,306.991089 195.840347,307.340210 
	C194.745514,307.556335 193.642944,307.739960 192.558029,307.997833 
	C191.507370,308.247589 190.474854,308.573700 189.434372,308.866333 
	C189.463394,309.355011 189.492416,309.843719 189.521423,310.332397 
	C191.377228,310.714691 193.233017,311.096985 195.088821,311.479279 
	C195.106659,311.850494 195.124512,312.221741 195.142365,312.592987 
	C193.852890,312.745667 192.563431,312.898346 190.851379,313.118103 
z"/>
<path fill="#FFA620" opacity="1.000000" stroke="none" 
	d="
M280.149719,315.954834 
	C281.931366,314.039246 281.839386,314.188507 279.240540,312.587158 
	C277.976776,311.808472 276.579834,310.468994 276.300507,309.158081 
	C276.130188,308.358978 277.843353,306.462982 278.940826,306.250793 
	C280.622375,305.925598 282.502502,306.627441 284.298370,306.893402 
	C284.197021,307.392944 284.095673,307.892487 283.994324,308.392029 
	C282.356384,308.392029 280.718445,308.392029 278.829071,308.392029 
	C279.450745,312.174744 288.043182,311.145813 283.799774,316.661346 
	C281.722290,319.361633 278.257019,318.622589 275.992218,315.167633 
	C277.251923,315.427185 278.511627,315.686768 280.149719,315.954834 
z"/>
<path fill="#FEAC2E" opacity="1.000000" stroke="none" 
	d="
M256.978882,314.822937 
	C260.762451,317.059387 262.094635,315.539856 262.217194,312.001953 
	C262.286652,309.997192 262.480774,307.996796 263.429199,306.045685 
	C265.003143,309.572296 265.827057,313.419281 263.188141,316.341919 
	C261.991699,317.666992 258.211121,318.201233 256.587891,317.306641 
	C251.888748,314.717072 254.682709,310.064514 253.970383,306.315186 
	C254.480728,306.220947 254.991058,306.126709 255.501389,306.032471 
	C255.910629,308.847931 256.319855,311.663361 256.978882,314.822937 
z"/>
<path fill="#FFA620" opacity="1.000000" stroke="none" 
	d="
M301.840149,310.978333 
	C303.025177,311.124146 303.797638,311.266815 304.570129,311.409515 
	C304.618744,311.740051 304.667358,312.070618 304.715973,312.401184 
	C302.853638,312.755249 300.991272,313.109283 299.128937,313.463348 
	C299.009216,313.975250 298.889465,314.487183 298.769714,314.999115 
	C300.988800,315.574554 303.207886,316.150024 305.426941,316.725464 
	C305.431519,317.062317 305.436096,317.399170 305.440674,317.735992 
	C302.751495,317.856232 300.062286,317.976440 297.096802,318.109039 
	C297.096802,313.849823 297.096802,310.127594 297.096802,306.425446 
	C299.985321,306.425446 302.592010,306.425446 305.198669,306.425446 
	C305.215332,306.813904 305.232025,307.202362 305.248718,307.590820 
	C303.931702,307.725128 302.584808,307.734375 301.308563,308.039276 
	C300.507751,308.230591 299.813019,308.865997 299.070709,309.302155 
	C299.856354,309.859833 300.641998,310.417542 301.840149,310.978333 
z"/>
<path fill="#FFA620" opacity="1.000000" stroke="none" 
	d="
M360.651031,315.613922 
	C361.579163,312.308136 362.142181,309.222931 362.705170,306.137695 
	C363.279297,306.161255 363.853394,306.184845 364.427490,306.208405 
	C364.001465,309.598724 364.140259,313.228180 362.858215,316.256012 
	C362.377350,317.391663 358.020355,318.178070 356.422913,317.305969 
	C351.683899,314.718842 354.667511,310.042633 353.832733,306.314087 
	C354.350220,306.227386 354.867706,306.140686 355.385193,306.053986 
	C355.586212,307.916199 355.949036,309.778198 355.951385,311.640686 
	C355.955170,314.643219 356.783356,316.557739 360.651031,315.613922 
z"/>
<path fill="#121212" opacity="1.000000" stroke="none" 
	d="
M380.271973,234.740051 
	C381.294373,234.725861 381.920868,234.725861 382.766693,234.725861 
	C380.553894,238.111023 378.533234,241.202255 377.126373,243.354477 
	C375.799774,240.850830 374.175873,237.786057 372.569397,234.754257 
	C374.362671,234.754257 377.119324,234.754257 380.271973,234.740051 
z"/>
<path fill="#434342" opacity="1.000000" stroke="none" 
	d="
M26.281610,312.363708 
	C26.341776,311.923370 26.520052,311.901825 26.965681,311.913147 
	C43.624531,311.946014 60.016029,311.946014 76.407524,311.946014 
	C76.410103,312.224854 76.412674,312.503662 76.415245,312.782501 
	C59.743404,312.782501 43.071564,312.782501 26.281610,312.363708 
z"/>
<path fill="#434342" opacity="1.000000" stroke="none" 
	d="
M474.321594,311.864014 
	C474.945526,311.920959 475.122040,311.895050 475.563721,311.905151 
	C475.051208,312.293274 474.274689,312.949524 473.495667,312.952515 
	C458.064331,313.011871 442.632660,312.999786 427.201111,312.979187 
	C426.580902,312.978363 425.961029,312.751465 425.369202,311.781097 
	C441.537537,311.781097 457.705841,311.781097 474.321594,311.864014 
z"/>
<path fill="#121212" opacity="1.000000" stroke="none" 
	d="
M365.448853,273.187286 
	C366.002258,272.959229 366.265442,272.958435 366.726135,272.975830 
	C366.156921,274.332581 365.390198,275.689941 365.355438,275.751495 
	C365.355133,275.747955 365.256866,274.571869 365.448853,273.187286 
z"/>
<path fill="#FBFAF9" opacity="1.000000" stroke="none" 
	d="
M238.937088,308.786743 
	C239.193832,311.058075 239.614365,313.274078 238.898727,315.026001 
	C238.623764,315.699127 235.327301,315.969940 234.198929,315.225159 
	C233.102127,314.501251 232.254776,312.013397 232.646790,310.703918 
	C233.504501,307.838898 235.958511,307.392761 238.937088,308.786743 
z"/>
</svg>